<svg width="158" height="24" viewBox="0 0 158 24" fill="none" xmlns="http://www.w3.org/2000/svg">
<path d="M1.55957 22.008V5.99775H4.2145V7.40158C5.17201 6.27635 6.49313 5.71373 8.17784 5.71373C8.97955 5.68871 9.77758 5.83186 10.52 6.13385C11.2623 6.43584 11.9325 6.88991 12.4867 7.4665C13.6219 8.63501 14.1886 10.1281 14.1868 11.9458C14.185 13.7635 13.6183 15.2764 12.4867 16.4846C11.9329 17.0698 11.2605 17.5316 10.514 17.8393C9.76752 18.147 8.96384 18.2938 8.15608 18.2698C7.48555 18.2834 6.81816 18.1752 6.18665 17.9506C5.54903 17.6952 4.96227 17.3288 4.45387 16.8687V22.008H1.55957ZM7.80245 8.35641C7.33406 8.34444 6.86838 8.43075 6.43577 8.60972C6.00317 8.78869 5.61334 9.05629 5.2917 9.39509C4.95727 9.74304 4.696 10.1538 4.52318 10.6034C4.35036 11.053 4.26946 11.5324 4.28522 12.0134C4.27273 12.4899 4.35739 12.9639 4.53411 13.4069C4.71082 13.8499 4.97594 14.2528 5.31346 14.5912C5.64017 14.9294 6.034 15.1963 6.46997 15.3751C6.90593 15.5539 7.37451 15.6407 7.84598 15.6299C8.30453 15.6375 8.75955 15.5489 9.18138 15.3699C9.6032 15.191 9.98237 14.9256 10.2942 14.5912C10.6251 14.2492 10.8843 13.8452 11.0567 13.4026C11.229 12.9601 11.311 12.4878 11.2979 12.0134C11.3207 11.0501 10.96 10.1168 10.2942 9.41673C9.97867 9.07381 9.59318 8.80184 9.16347 8.61898C8.73377 8.43612 8.26975 8.34661 7.80245 8.35641Z" fill="#001B47"/>
<path d="M15.9277 17.9885V5.99778H18.5827V7.16629C18.8689 6.70764 19.2558 6.31928 19.7143 6.03024C20.1663 5.80334 20.6691 5.69532 21.175 5.71647H21.4035V8.48357C19.6753 8.48357 18.8112 9.42848 18.8112 11.3183V17.9885H15.9277Z" fill="#001B47"/>
<path d="M28.7724 5.71632C29.6173 5.69796 30.4571 5.85058 31.2408 6.16491C32.0246 6.47924 32.7359 6.94872 33.3315 7.54483C33.9341 8.1223 34.4104 8.81721 34.7305 9.58609C35.0507 10.355 35.2078 11.1813 35.1921 12.0133C35.203 12.838 35.0424 13.6561 34.7204 14.4162C34.3983 15.1764 33.9218 15.8621 33.3206 16.4304C32.1079 17.6063 30.4812 18.2644 28.7874 18.2644C27.0936 18.2644 25.4668 17.6063 24.2542 16.4304C23.6491 15.8617 23.1693 15.1742 22.8453 14.4115C22.5213 13.6489 22.36 12.8276 22.3718 11.9998C22.3594 11.172 22.5192 10.3507 22.8413 9.58728C23.1633 8.82388 23.6407 8.13496 24.2433 7.56376C24.8327 6.96637 25.5381 6.4945 26.3168 6.1769C27.0954 5.85929 27.9309 5.70258 28.7724 5.71632ZM28.7724 8.3563C28.3087 8.35191 27.8492 8.44397 27.4234 8.62657C26.9976 8.80917 26.6148 9.07827 26.2997 9.41661C25.9627 9.75675 25.6976 10.1606 25.5201 10.6042C25.3426 11.0479 25.2562 11.5224 25.2661 11.9998C25.2582 12.4749 25.3455 12.9468 25.523 13.388C25.7005 13.8292 25.9645 14.2308 26.2997 14.5694C26.6206 14.9044 27.0066 15.171 27.4342 15.3532C27.8618 15.5355 28.3222 15.6294 28.7874 15.6294C29.2526 15.6294 29.713 15.5355 30.1406 15.3532C30.5682 15.171 30.9541 14.9044 31.275 14.5694C31.6083 14.2299 31.8703 13.8279 32.0459 13.3867C32.2215 12.9456 32.3071 12.4741 32.2978 11.9998C32.3073 11.5241 32.2213 11.0514 32.0447 10.6092C31.8681 10.167 31.6046 9.76435 31.2696 9.42473C30.9515 9.08305 30.5649 8.81145 30.1348 8.62743C29.7047 8.4434 29.2406 8.35104 28.7724 8.3563Z" fill="#001B47"/>
<path d="M36.8281 22.008V5.99775H39.4831V7.40158C40.4406 6.27635 41.7617 5.71373 43.4464 5.71373C44.2481 5.68871 45.0461 5.83186 45.7885 6.13385C46.5309 6.43584 47.201 6.88991 47.7552 7.4665C48.8868 8.63501 49.4526 10.1281 49.4526 11.9458C49.4526 13.7635 48.8868 15.2755 47.7552 16.4819C47.2032 17.0659 46.5332 17.5271 45.7892 17.8353C45.0451 18.1434 44.2439 18.2915 43.4382 18.2698C42.7623 18.2848 42.0893 18.1766 41.4525 17.9506C40.8157 17.6951 40.2299 17.3287 39.7224 16.8687V22.008H36.8281ZM43.0656 8.36993C42.5968 8.35792 42.1307 8.44421 41.6976 8.62316C41.2646 8.80212 40.8743 9.06974 40.5521 9.40861C40.2185 9.75705 39.958 10.168 39.7857 10.6175C39.6134 11.067 39.5327 11.5461 39.5483 12.0269C39.536 12.5031 39.6204 12.9769 39.7966 13.4199C39.9728 13.8628 40.2372 14.2658 40.5739 14.6047C40.9013 14.9427 41.2956 15.2095 41.732 15.3883C42.1684 15.567 42.6373 15.6539 43.1091 15.6434C43.5676 15.651 44.0227 15.5624 44.4445 15.3834C44.8663 15.2045 45.2455 14.9391 45.5573 14.6047C45.8882 14.2628 46.1475 13.8587 46.3198 13.4162C46.4921 12.9736 46.5741 12.5013 46.561 12.0269C46.5838 11.0636 46.2231 10.1304 45.5573 9.43025C45.2428 9.08516 44.8578 8.81084 44.4281 8.62565C43.9984 8.44045 43.5338 8.34866 43.0656 8.35641V8.36993Z" fill="#001B47"/>
<path d="M63.4061 5.9978V17.9886H60.7512V16.4306C60.2631 17.0197 59.6549 17.4991 58.9667 17.8371C58.2666 18.1412 57.508 18.2889 56.7443 18.2699C55.9352 18.2947 55.1298 18.1506 54.3801 17.8468C53.6305 17.5431 52.9532 17.0864 52.392 16.5063C51.2531 15.3306 50.6837 13.8402 50.6837 12.0351C50.6764 10.2084 51.2531 8.69728 52.4137 7.50172C52.9781 6.91534 53.6601 6.45341 54.4155 6.14587C55.1709 5.83834 55.9828 5.69205 56.7987 5.7165C57.5804 5.69262 58.3578 5.84038 59.0755 6.14928C59.7497 6.48632 60.3292 6.98449 60.762 7.5991V5.9978H63.4061ZM57.1034 8.35647C56.6278 8.33919 56.1541 8.4229 55.7136 8.602C55.2732 8.7811 54.8762 9.05149 54.5491 9.39514C53.8768 10.1333 53.524 11.1051 53.5671 12.1C53.5467 12.5702 53.6233 13.0395 53.7922 13.4791C53.9611 13.9187 54.2187 14.3192 54.5491 14.6562C54.893 14.9852 55.3007 15.2413 55.7473 15.4087C56.1939 15.5761 56.6701 15.6514 57.1469 15.6299C57.6194 15.6507 58.091 15.5729 58.5314 15.4015C58.9718 15.23 59.3712 14.9688 59.7039 14.6345C60.0283 14.2855 60.2802 13.8762 60.445 13.4301C60.6098 12.984 60.6842 12.5099 60.6641 12.0351C60.681 11.5509 60.601 11.0682 60.4287 10.615C60.2564 10.1618 59.9952 9.74713 59.6604 9.39514C59.3309 9.05376 58.9332 8.78492 58.4927 8.606C58.0522 8.42708 57.5789 8.34207 57.1034 8.35647Z" fill="#001B47"/>
<path d="M74.1979 14.0499H77.4622C77.0378 15.2988 76.236 16.3871 75.1663 17.1659C74.0852 17.9146 72.7922 18.3012 71.475 18.2695C70.6305 18.2854 69.7914 18.1316 69.008 17.8174C68.2246 17.5032 67.5131 17.0351 66.9159 16.441C66.311 15.8703 65.8319 15.1808 65.5093 14.4162C65.1866 13.6516 65.0274 12.8286 65.0417 11.9996C65.0221 11.169 65.1753 10.3433 65.4917 9.57432C65.8081 8.80537 66.281 8.10975 66.8806 7.53111C67.4708 6.9413 68.1754 6.47698 68.9517 6.16637C69.7279 5.85575 70.5596 5.70533 71.3961 5.72424C72.7399 5.69492 74.0585 6.08877 75.1636 6.84948C76.2567 7.62597 77.0663 8.7348 77.4704 10.0088H74.2061C73.6385 8.9124 72.7 8.36421 71.3907 8.36421C70.9293 8.3476 70.4695 8.42763 70.0411 8.59911C69.6128 8.77059 69.2255 9.0297 68.9044 9.35961C68.5783 9.71128 68.3255 10.1238 68.1607 10.5732C67.9959 11.0226 67.9223 11.5001 67.9442 11.9779C67.9283 12.4592 68.0089 12.9388 68.1812 13.3888C68.3535 13.8387 68.6142 14.2501 68.9479 14.599C69.2699 14.9361 69.6596 15.2021 70.0917 15.3796C70.5238 15.5572 70.9886 15.6423 71.456 15.6295C72.6003 15.6295 73.5143 15.103 74.1979 14.0499Z" fill="#001B47"/>
<path d="M79.4961 4.69659V1.9917H82.3904V4.69659H79.4961ZM79.4961 17.9884V5.99764H82.3904V17.9884H79.4961Z" fill="#001B47"/>
<path d="M85.1538 17.9884V8.63761H83.7393V5.99764H85.1538V1.9917H88.0481V5.99764H89.789V8.63761H88.0481V17.9884H85.1538Z" fill="#001B47"/>
<path d="M92.3595 22.0078L94.6227 16.8685L90.2051 5.99756H93.5129L96.1923 13.7687L99.1083 5.99756H102.441L95.4741 22.0078H92.3595Z" fill="#001B47"/>
<path d="M119.54 15.5064H122.982C122.396 16.9213 121.388 18.1198 120.096 18.9377C118.782 19.7831 117.25 20.2239 115.689 20.2057C114.597 20.2235 113.513 20.0189 112.503 19.6042C111.492 19.1895 110.576 18.5733 109.81 17.7931C109.044 17.0351 108.436 16.133 108.02 15.1386C107.603 14.1441 107.387 13.0769 107.383 11.9983C107.379 10.9196 107.587 9.85086 107.997 8.85334C108.406 7.85582 109.007 6.94922 109.767 6.18565C110.511 5.41506 111.404 4.80537 112.392 4.39414C113.379 3.98291 114.441 3.77883 115.51 3.79447C117.103 3.76935 118.668 4.21296 120.013 5.07048C121.337 5.93023 122.376 7.16701 122.995 8.6224H119.711C119.23 7.97936 118.602 7.46224 117.879 7.115C117.157 6.76777 116.361 6.60068 115.561 6.62796C114.866 6.60904 114.175 6.73455 113.531 6.9966C112.887 7.25865 112.304 7.65156 111.819 8.1506C111.323 8.65098 110.934 9.24704 110.675 9.9027C110.415 10.5584 110.291 11.26 110.309 11.9652C110.298 12.6732 110.428 13.3762 110.693 14.0325C110.958 14.6888 111.352 15.2849 111.851 15.7852C112.334 16.2982 112.917 16.7044 113.565 16.9777C114.213 17.251 114.911 17.3853 115.614 17.3722C116.316 17.3887 117.013 17.2496 117.656 16.9647C118.367 16.5967 119.005 16.1026 119.54 15.5064Z" fill="#4397F7"/>
<path d="M124.903 19.985V3.99365H129.502C133.543 3.99365 135.563 5.70762 135.563 9.13556C135.563 11.7498 134.17 13.4033 131.384 14.0961L135.712 20.0066H132.079L127.868 13.858V19.985H124.903ZM127.879 11.6253H129.329C130.484 11.6253 131.317 11.4359 131.828 11.0516C132.339 10.6673 132.599 10.053 132.599 9.20051C132.599 8.34803 132.328 7.73912 131.806 7.37107C131.284 7.00302 130.41 6.82982 129.199 6.82982H127.868L127.879 11.6253Z" fill="#4397F7"/>
<path d="M137.62 19.9877V3.99365H141.719L146.054 16.1252L150.349 3.99365H154.434V20.0012H151.438V8.00501L147.236 20.0066H144.771L140.575 8.00501V20.0039L137.62 19.9877Z" fill="#4397F7"/>
</svg>
